<svg id="Режим_изоляции" data-name="Режим изоляции" xmlns="http://www.w3.org/2000/svg" width="172.28" height="172.28" viewBox="0 0 172.28 172.28"><title>full screen</title><path d="M1169,1216.07a6,6,0,0,0,6-6v-25.58l38.65,38.63a6,6,0,0,0,8.48-8.48L1183.48,1176h25.59a6,6,0,0,0,0-12H1169a6,6,0,0,0-6,6v40.07a6,6,0,0,0,6,6h0Zm0,0" transform="translate(-1163 -1164)" style="fill:#bebebe"/><path d="M1329.28,1284.21a6,6,0,0,0-6,6v25.59L1283.44,1276a6,6,0,1,0-8.48,8.49l39.83,39.83h-25.58a6,6,0,0,0,0,12h40.07a6,6,0,0,0,6-6v-40.07a6,6,0,0,0-6-6h0Zm0,0" transform="translate(-1163 -1164)" style="fill:#bebebe"/><path d="M1214.83,1276L1175,1315.79v-25.58a6,6,0,1,0-12,0v40.07a6,6,0,0,0,6,6h40.07a6,6,0,0,0,0-12h-25.58l39.83-39.84a6,6,0,0,0-8.49-8.49h0Zm0,0" transform="translate(-1163 -1164)" style="fill:#bebebe"/><path d="M1329.28,1164h-40.07a6,6,0,0,0,0,12h25.58l-38.64,38.64a6,6,0,1,0,8.49,8.48l38.64-38.64v25.59a6,6,0,1,0,12,0V1170a6,6,0,0,0-6-6h0Zm0,0" transform="translate(-1163 -1164)" style="fill:#bebebe"/></svg>