<svg id="Capa_1" data-name="Capa 1" xmlns="http://www.w3.org/2000/svg" width="13.93cm" height="17.92cm" viewBox="0 0 394.9 508"><title>7 icon</title><path d="M398.5,308.2l35.4-27.9-0.2-45.1,19.7-40.6L433.8,154l0.2-45.1-35.4-28L379.2,40.2l-44-9.9L300,2,256,12.3,212.1,2,176.9,30.3l-44,9.9L113.5,80.9,78,108.9,78.2,154,58.5,194.6l19.7,40.6L78,280.3l35.4,28,14.2,29.9L70.1,461.5l68.1-10.4L174,510l59.6-127.9,22.3-5.2,17.6,4.1,60.2,129,35.8-58.9,68.1,10.4-55.5-119ZM172.1,475.3l-25.6-42.1-48.6,7.4,42-90.2,37,8.3L212.1,387Zm44-105.9-31.9-25.7-40-9-17.6-37L94.4,272.3l0.2-41L76.7,194.5l17.9-36.9-0.2-41,32.2-25.4,17.6-37,40-9,31.9-25.7L256,28.8l39.9-9.3,31.9,25.7,40,9,17.6,37,32.2,25.4-0.2,41,17.9,36.8-17.9,36.8,0.2,41-32.2,25.4-17.6,37-40,9-31.9,25.7L256,360Zm145.1,63.9-25.6,42-41.8-89.6,6.1,1.4,35.2-28.3,33.1-7.4,41.6,89.3Z" transform="translate(-58.5 -2)" style="fill:#fff"/><path d="M397.7,194.6c0-78.1-63.6-141.7-141.7-141.7S114.3,116.5,114.3,194.6,177.9,336.3,256,336.3,397.7,272.7,397.7,194.6ZM256,319.9A125.3,125.3,0,1,1,381.3,194.6,125.43,125.43,0,0,1,256,319.9Z" transform="translate(-58.5 -2)" style="fill:#fff"/><path d="M281.1,160L256,82.6,230.9,160H149.5l65.8,47.8-25.1,77.4L256,237.4l65.8,47.8-25.1-77.4L362.5,160H281.1Zm9.6,82.3L256,217.1l-34.7,25.2,13.2-40.8-34.7-25.2h42.8l13.2-40.8L269,176.3h42.8l-34.7,25.2Z" transform="translate(-58.5 -2)" style="fill:#fff"/></svg>