<svg id="Слой_1" data-name="Слой 1" xmlns="http://www.w3.org/2000/svg" width="11.08cm" height="14.45cm" viewBox="0 0 314.12 409.6"><title>3 icon</title><path d="M2739.47-55.67c-99.67,0-144.36-51.44-145-52.18a7.06,7.06,0,0,0-10.48,0c-0.44.52-44.64,52.17-145,52.17a6.83,6.83,0,0,0-6.83,6.83V81.48c0,71.24,32,138.95,85.67,181.11,21.63,17,45,29.29,69.44,36.55a6.8,6.8,0,0,0,3.89,0c24.45-7.26,47.81-19.55,69.44-36.55,53.65-42.16,85.67-109.86,85.67-181.11V-48.84a6.83,6.83,0,0,0-6.83-6.83h0Zm-6.83,137.16c0,67.09-30.07,130.78-80.46,170.37-19.69,15.48-40.86,26.77-62.95,33.61-22.09-6.83-43.26-18.13-62.95-33.61-50.38-39.59-80.46-103.28-80.46-170.37V-42.09c83.6-1.85,128.82-37.53,143.4-51.52,14.58,14,59.81,49.67,143.41,51.52V81.49Zm0,0" transform="translate(-2432.17 110.18)" style="fill:#fff"/><path d="M2585.4-55.64c-20.59,14-55.74,32-106.28,38.46a6.83,6.83,0,0,0-6,6.78V81.49c0,58.78,26.18,114.44,70,148.89a173.25,173.25,0,0,0,43.57,25.29,6.87,6.87,0,0,0,5,0,173.29,173.29,0,0,0,43.58-25.29c43.84-34.46,70-90.12,70-148.89V-10.4a6.83,6.83,0,0,0-6-6.78c-50.54-6.45-85.69-24.47-106.28-38.46a6.81,6.81,0,0,0-7.67,0h0ZM2691.67-4.45V81.49c0,54.62-24.22,106.26-64.8,138.15a160.7,160.7,0,0,1-37.64,22.3,160.83,160.83,0,0,1-37.63-22.3c-40.57-31.89-64.8-83.54-64.8-138.16V-4.45c47.11-7,81.09-23.53,102.43-37.35,21.34,13.82,55.32,30.38,102.43,37.35h0Zm0,0" transform="translate(-2432.17 110.18)" style="fill:#fff"/><path d="M2525.78,89.73a6.83,6.83,0,1,0-9.66,9.66L2570.75,154a6.84,6.84,0,0,0,4.83,2h0.23a6.83,6.83,0,0,0,4.91-2.33l95.6-109.26a6.83,6.83,0,0,0-10.28-9L2575.24,139.2Zm0,0" transform="translate(-2432.17 110.18)" style="fill:#fff"/></svg>