<svg id="Capa_1" data-name="Capa 1" xmlns="http://www.w3.org/2000/svg" width="17.92cm" height="17.92cm" viewBox="0 0 508 508"><title>9 icon</title><rect x="49.2" y="286.8" width="262.2" height="16.4" style="fill:#fff"/><rect x="49.2" y="213" width="278.6" height="16.4" style="fill:#fff"/><rect x="49.2" y="360.5" width="204.8" height="16.4" style="fill:#fff"/><rect x="114.7" y="434.3" width="16.4" height="16.4" style="fill:#fff"/><rect x="81.9" y="434.3" width="16.4" height="16.4" style="fill:#fff"/><rect x="49.2" y="434.3" width="16.4" height="16.4" style="fill:#fff"/><path d="M165.9,43H51.2V174.1H165.9V43ZM149.5,157.7H67.6V59.4h81.9v98.3Z" transform="translate(-2 -2)" style="fill:#fff"/><path d="M502.8,229l-23.2-23.2a24.62,24.62,0,0,0-34.8,0l-66,66V121.5L259.4,2H2V510H378.9V387.7L502.8,263.8A24.62,24.62,0,0,0,502.8,229ZM258.7,425.2l24.7,24.7-30.9,6.2ZM300,443.4l-34.8-34.8L415.9,258l34.8,34.8Zm127.5-197,11.6-11.6,34.8,34.8-11.6,11.6ZM264.2,30l86.7,86.7H264.2V30Zm98.3,463.6H18.4V18.4H247.8V133.1H362.5V288.2L246.1,404.6,231.6,477,304,462.5,362.5,404v89.6ZM491.2,252.2l-5.8,5.8-34.8-34.8,5.8-5.8a8.21,8.21,0,0,1,11.6,0l23.2,23.2A8.21,8.21,0,0,1,491.2,252.2Z" transform="translate(-2 -2)" style="fill:#fff"/><rect x="276.01" y="342.5" width="163.9" height="16.4" transform="translate(-145.14 353.83) rotate(-45)" style="fill:#fff"/></svg>