<svg id="Слой_1" data-name="Слой 1" xmlns="http://www.w3.org/2000/svg" width="14.24cm" height="11.31cm" viewBox="0 0 403.6 320.67"><title>6 icon</title><path d="M70.23,97a5.17,5.17,0,0,0-7.08-1.78,109.1,109.1,0,0,0-49.87,67.7,5.17,5.17,0,0,0,3.81,6.22,5.43,5.43,0,0,0,1.22.14,5.13,5.13,0,0,0,5-4A98.65,98.65,0,0,1,68.45,104,5.17,5.17,0,0,0,70.23,97Z" transform="translate(75 89.27)" style="fill:#fff"/><path d="M118.67,79.91a109,109,0,0,0-25.12,2.92,5.17,5.17,0,0,0-3.83,6.22,5.11,5.11,0,0,0,6.22,3.82,98.91,98.91,0,0,1,22.73-2.64A5.16,5.16,0,1,0,118.67,79.91Z" transform="translate(75 89.27)" style="fill:#fff"/><path d="M271.82,96.58L271,96.44l-0.66-.59A128.54,128.54,0,0,0,222,68.44l-6.41-2L221.27,63A70.34,70.34,0,0,0,255.46,2.44a70.85,70.85,0,0,0-70.77-70.77,71.19,71.19,0,0,0-10.91.84l-1.46.22-1.07-1a75.79,75.79,0,0,0-52.45-21,75.83,75.83,0,0,0-52.46,21l-1.07,1-1.45-.22a71.19,71.19,0,0,0-10.91-.84A70.85,70.85,0,0,0-17.86,2.44,70.34,70.34,0,0,0,16.33,63l5.73,3.48-6.41,2C-37.73,84.72-75,135-75,190.8A5.16,5.16,0,0,0-69.84,196H201.1l0.87,1.5A67.86,67.86,0,1,0,271.82,96.58Zm-24-4.94,6.19,4-7.19,1.5a67.61,67.61,0,0,0-18,6.54l-2.16,1.15-1.57-1.89a139.67,139.67,0,0,0-24-22.83l-9.8-7.3,12.07,1.94A116.26,116.26,0,0,1,247.84,91.64ZM186-58a60.17,60.17,0,0,1,41.83,18.14A60.12,60.12,0,0,1,245.14,2.44a60.51,60.51,0,0,1-60.45,60.45A59.68,59.68,0,0,1,158.9,57.1l-5-2.37,4.71-2.89A75.8,75.8,0,0,0,195-13.09a75.94,75.94,0,0,0-11.56-40.3l-3-4.71ZM67.51-54.34a66,66,0,0,1,14-13A65.41,65.41,0,0,1,118.8-78.95,65.35,65.35,0,0,1,156.13-67.3a66.09,66.09,0,0,1,14,13,66,66,0,0,1,14.57,41.25,66.13,66.13,0,0,1-38.32,59.81A65.43,65.43,0,0,1,128,52.11a65.79,65.79,0,0,1-9.24.66,65.93,65.93,0,0,1-9.25-.66,65.47,65.47,0,0,1-18.29-5.39A66.13,66.13,0,0,1,52.94-13.09,66,66,0,0,1,67.51-54.34ZM10.18,45.17A60.05,60.05,0,0,1-7.54,2.44,60.08,60.08,0,0,1,9.75-39.84,60.13,60.13,0,0,1,51.58-58l5.56-.12-3,4.71a75.87,75.87,0,0,0-11.56,40.3A75.81,75.81,0,0,0,79,51.84l4.71,2.9-5,2.36a59.82,59.82,0,0,1-25.79,5.79h0A60,60,0,0,1,10.18,45.17ZM-19.15,185.64H-64.61l0.22-3.21A117.8,117.8,0,0,1,34.22,74.71l12.07-1.94-9.8,7.3A137.77,137.77,0,0,0-19,182.82Zm212-22.1a67.62,67.62,0,0,0,2.51,18.3l1.06,3.8H-8.85l0.21-3.19a127.83,127.83,0,0,1,106-117.56,129.15,129.15,0,0,1,42.84,0,127.19,127.19,0,0,1,31.14,9.53,129.06,129.06,0,0,1,44.92,34l1.9,2.24L216,112.58A67.9,67.9,0,0,0,192.87,163.54Zm111.57,37.37a57.59,57.59,0,0,1-97.6-17.21A57.55,57.55,0,0,1,260.73,106c1.39,0,2.84.06,4.54,0.2a57.62,57.62,0,0,1,53,57.35A57.56,57.56,0,0,1,304.44,200.91Z" transform="translate(75 89.27)" style="fill:#fff"/><path d="M299.54,151.69a8.23,8.23,0,0,0-7.86-5.71h-7.44a13.75,13.75,0,0,1-13.11-9.52l-2.3-7.08a8.26,8.26,0,0,0-15.71,0l-2.3,7.08A13.75,13.75,0,0,1,237.71,146h-7.44a8.25,8.25,0,0,0-4.85,14.94l6,4.38a13.75,13.75,0,0,1,5,15.41l-2.3,7.08A8.26,8.26,0,0,0,246.85,197l6-4.37a13.76,13.76,0,0,1,16.21,0l6,4.38a8.35,8.35,0,0,0,9.71,0,8.22,8.22,0,0,0,3-9.23l-2.3-7.08a13.74,13.74,0,0,1,5-15.41l6-4.38A8.23,8.23,0,0,0,299.54,151.69Zm-19.09,8.91a24.16,24.16,0,0,0-5.85,18l0.46,5-4.63-2a24.09,24.09,0,0,0-18.92,0l-4.62,2,0.45-5a24.11,24.11,0,0,0-5.84-18l-3.32-3.79,4.91-1.11a24.12,24.12,0,0,0,15.31-11.12l2.57-4.32,2.58,4.32a24.12,24.12,0,0,0,15.31,11.12l4.91,1.11Z" transform="translate(75 89.27)" style="fill:#fff"/></svg>