<svg id="Режим_изоляции" data-name="Режим изоляции" xmlns="http://www.w3.org/2000/svg" width="14.45cm" height="11.07cm" viewBox="0 0 409.6 313.76"><title>8 icon</title><path d="M2181.27,168.56h-12.43a21.08,21.08,0,0,0-21.06,21.06V216.3h-68.21V173.88c24.87-8,40.63-41.28,40.63-87.18,0-49.35-18.2-84.12-46.38-88.59a7,7,0,0,0-1.07-.08H1799.91a6.82,6.82,0,0,0-6.7,5.57h0c-0.14.73-3.22,18.06,8.48,32.15,7.76,9.35,19.92,14.8,36.09,16.34A159,159,0,0,0,1834,86.7c0,49.72,21,88.67,47.75,88.67H2025v88.44a20.71,20.71,0,0,0,20.69,20.69h13.2a20.67,20.67,0,0,0,19.37-13.64h69.53v19.86a21.09,21.09,0,0,0,21.06,21.07h12.43a21.09,21.09,0,0,0,21.06-21.07V189.62a21.1,21.1,0,0,0-21.07-21.06h0ZM2072.16,11.67c16.35,3,32.66,25.12,34.23,68.21h-140L1941.14,54.6a6.79,6.79,0,0,0-4.82-2h-50.5l-0.19-.28c-0.69-1.12-1.47-2.25-2.32-3.38-0.46-.61-1-1.23-1.46-1.84l-0.67-.84-0.84-1c-0.3-.34-0.55-0.68-0.85-1-0.12-.13-0.27-0.22-0.4-0.34-0.76-.83-1.56-1.65-2.4-2.48q-0.81-.8-1.64-1.58c-1.36-1.27-2.79-2.54-4.32-3.82-1.23-1-2.51-2-3.81-3-0.59-.46-1.18-0.91-1.79-1.37a225.69,225.69,0,0,0-33.06-20h240.1ZM1888.57,77.6c0,14.26-4.09,23.68-6.82,27.79-2.73-4.11-6.82-13.53-6.82-27.79a65.78,65.78,0,0,1,1.43-14,0.63,0.63,0,0,0,.12.09,6.72,6.72,0,0,0,2.06,1.68,5.64,5.64,0,0,0,.52.23,6.68,6.68,0,0,0,2.7.63h5.88a67.72,67.72,0,0,1,.93,11.38h0Zm-76.31-50.44a25.11,25.11,0,0,1-5.39-12.09,314.4,314.4,0,0,1,36.52,18.53c-0.67,1.67-1.28,3.41-1.88,5.18-13.67-.88-23.48-4.77-29.24-11.61h0Zm35.38,59.55c0-16.52,2.61-32.37,7.41-45.5l0.41,0.29a99.92,99.92,0,0,1,10.75,8.89,71.94,71.94,0,0,0-4.93,27.23c0,23,9.56,43.2,20.46,43.2s20.46-20.18,20.46-43.2a81.3,81.3,0,0,0-.84-11.37h13.1a151.84,151.84,0,0,1,1.39,20.46c0,42.25-18.34,75-34.1,75-16.12,0-34.1-30.81-34.1-75h0Zm59.16,75c0.19-.22.36-0.51,0.56-0.74q2-2.36,3.78-5.06c0.21-.3.42-0.56,0.62-0.86,1.4-2.14,2.72-4.43,4-6.84,0.34-.64.64-1.33,1-2,0.91-1.85,1.79-3.75,2.62-5.73,0.36-.85.7-1.7,1-2.57,0.81-2.07,1.56-4.21,2.28-6.41,0.23-.72.49-1.42,0.71-2.15q1.33-4.4,2.41-9.06c0.14-.62.25-1.26,0.38-1.88q0.81-3.8,1.44-7.74c0.16-1.06.31-2.12,0.46-3.18q0.48-3.57.8-7.24c0.09-1,.2-2.07.27-3.12,0.23-3.44.38-6.92,0.38-10.45V66.24h4l25.28,25.28a6.81,6.81,0,0,0,4.82,2H2106.4c-1.57,43.09-17.88,65.24-34.23,68.21H1906.8Zm152.07,109.14h-13.2a7.06,7.06,0,0,1-7-7V175.38h27.28v88.44a7.06,7.06,0,0,1-7,7h0Zm20.68-13.65V229.94h68.21v27.28h-68.21Zm109.13,33.5a7.43,7.43,0,0,1-7.42,7.42h-12.43a7.43,7.43,0,0,1-7.42-7.42V189.61a7.43,7.43,0,0,1,7.42-7.42h12.43a7.43,7.43,0,0,1,7.42,7.42V290.72Zm0,0" transform="translate(-1792.73 1.97)" style="fill:#fff"/><path d="M2018.17,134.45a6.82,6.82,0,0,1-6.82,6.82h-54.57a6.82,6.82,0,1,1,0-13.64h54.57A6.82,6.82,0,0,1,2018.17,134.45Z" transform="translate(-1792.73 1.97)" style="fill:#fff"/></svg>