<svg id="Слой_1" data-name="Слой 1" xmlns="http://www.w3.org/2000/svg" width="14cm" height="14.45cm" viewBox="0 0 396.77 409.6"><title>5 icon</title><path d="M66.82,213.52A155.35,155.35,0,0,1-8,145.6a6,6,0,0,0-8.15-2.38,6,6,0,0,0-2.38,8.15A167.43,167.43,0,0,0,62.1,224.55a6,6,0,1,0,4.72-11h0Zm0,0" transform="translate(71 133.27)" style="fill:#fff"/><path d="M271,143.23a6,6,0,0,0-8.15,2.38A155.36,155.36,0,0,1,188,213.51a6,6,0,1,0,4.71,11,167.43,167.43,0,0,0,80.65-73.18,6,6,0,0,0-2.38-8.14h0Zm0,0" transform="translate(71 133.27)" style="fill:#fff"/><path d="M269.48-15a166.8,166.8,0,0,0-88.85-71.12A6,6,0,0,0,173-82.32a6,6,0,0,0,3.77,7.61,154.75,154.75,0,0,1,82.45,66,6,6,0,0,0,5.13,2.88,5.93,5.93,0,0,0,3.12-.88,6,6,0,0,0,2-8.25h0Zm0,0" transform="translate(71 133.27)" style="fill:#fff"/><path d="M81.77-82.33a6,6,0,0,0-7.6-3.76A166.79,166.79,0,0,0-14.7-15a6,6,0,0,0,2,8.25,6,6,0,0,0,3.12.88A6,6,0,0,0-4.46-8.71,154.78,154.78,0,0,1,78-74.73a6,6,0,0,0,3.77-7.6h0Zm0,0" transform="translate(71 133.27)" style="fill:#fff"/><path d="M161.46-52.81l-15-7.51a0.42,0.42,0,0,1-.23-0.37v-9.09A31.63,31.63,0,0,0,159-95.21V-108a25.27,25.27,0,0,0-25.24-25.24H121A25.27,25.27,0,0,0,95.74-108v12.82a31.63,31.63,0,0,0,12.82,25.43v9.09a0.41,0.41,0,0,1-.23.37l-15,7.51A18.72,18.72,0,0,0,82.91-36v17.73a6,6,0,0,0,6,6,6,6,0,0,0,6-6V-36a6.78,6.78,0,0,1,3.77-6.1l10.42-5.21,9.51,9.51a12.34,12.34,0,0,0,8.78,3.64,12.33,12.33,0,0,0,8.78-3.64l9.51-9.51,10.42,5.21A6.79,6.79,0,0,1,159.87-36v17.72a6,6,0,0,0,6,6,6,6,0,0,0,6-6V-36a18.73,18.73,0,0,0-10.41-16.84h0Zm-33.78,6.55a0.39,0.39,0,0,1-.29.12,0.37,0.37,0,0,1-.29-0.12l-8.2-8.2a12.4,12.4,0,0,0,1.67-6.22v-3.61a31.47,31.47,0,0,0,6.82.75,31.46,31.46,0,0,0,6.82-.75v3.61a12.4,12.4,0,0,0,1.67,6.22Zm-0.29-29.29a19.68,19.68,0,0,1-19.65-19.65V-108A13.25,13.25,0,0,1,121-121.27H133.8A13.25,13.25,0,0,1,147-108v12.82a19.67,19.67,0,0,1-19.65,19.65h0Zm0,0" transform="translate(71 133.27)" style="fill:#fff"/><path d="M161.46,235.77l-15-7.51a0.41,0.41,0,0,1-.23-0.37V218.8A31.62,31.62,0,0,0,159,193.38V180.55a25.26,25.26,0,0,0-25.24-25.24H121a25.27,25.27,0,0,0-25.24,25.24v12.83a31.62,31.62,0,0,0,12.83,25.42v9.09a0.41,0.41,0,0,1-.23.37l-15,7.51a18.73,18.73,0,0,0-10.41,16.84v17.73a6,6,0,1,0,12,0V252.61a6.79,6.79,0,0,1,3.77-6.11l10.42-5.21,9.51,9.51a12.41,12.41,0,0,0,17.56,0l9.51-9.51,10.42,5.21a6.79,6.79,0,0,1,3.77,6.11v17.73a6,6,0,0,0,12,0V252.61a18.73,18.73,0,0,0-10.41-16.84h0Zm-33.78,6.55a0.41,0.41,0,0,1-.29.12,0.39,0.39,0,0,1-.29-0.12l-8.2-8.2a12.41,12.41,0,0,0,1.67-6.22v-3.61a31.42,31.42,0,0,0,13.65,0v3.61a12.41,12.41,0,0,0,1.67,6.22ZM127.39,213a19.68,19.68,0,0,1-19.65-19.65V180.55A13.25,13.25,0,0,1,121,167.31H133.8A13.25,13.25,0,0,1,147,180.55v12.83A19.67,19.67,0,0,1,127.39,213h0Zm0,0" transform="translate(71 133.27)" style="fill:#fff"/><path d="M7.55,88.27l-15-7.51a0.41,0.41,0,0,1-.23-0.37V71.3A31.63,31.63,0,0,0,5.13,45.88V33.05A25.26,25.26,0,0,0-20.11,7.82H-32.93A25.26,25.26,0,0,0-58.17,33.05V45.88A31.62,31.62,0,0,0-45.35,71.3v9.09a0.4,0.4,0,0,1-.23.37l-15,7.51A18.73,18.73,0,0,0-71,105.11v17.72a6,6,0,0,0,6,6,6,6,0,0,0,6-6V105.11A6.79,6.79,0,0,1-55.23,99l10.42-5.21,9.51,9.51a12.39,12.39,0,0,0,8.78,3.63,12.39,12.39,0,0,0,8.78-3.63l9.51-9.51L2.18,99A6.8,6.8,0,0,1,6,105.11v17.72a6,6,0,0,0,12,0V105.11A18.73,18.73,0,0,0,7.55,88.27h0Zm-33.78,6.55a0.41,0.41,0,0,1-.58,0l-8.2-8.2a12.36,12.36,0,0,0,1.67-6.22V76.78a31.75,31.75,0,0,0,6.83.75,31.75,31.75,0,0,0,6.83-.75v3.61A12.37,12.37,0,0,0-18,86.62Zm-0.29-29.28A19.68,19.68,0,0,1-46.17,45.88V33.05A13.26,13.26,0,0,1-32.93,19.81h12.82A13.26,13.26,0,0,1-6.87,33.05V45.88A19.68,19.68,0,0,1-26.52,65.53h0Zm0,0" transform="translate(71 133.27)" style="fill:#fff"/><path d="M315.37,88.27l-15-7.51a0.41,0.41,0,0,1-.23-0.37V71.3a31.62,31.62,0,0,0,12.83-25.43V33.05A25.27,25.27,0,0,0,287.71,7.82H274.88a25.27,25.27,0,0,0-25.24,25.24V45.88A31.63,31.63,0,0,0,262.47,71.3v9.09a0.41,0.41,0,0,1-.23.37l-15,7.51a18.73,18.73,0,0,0-10.41,16.84v17.73a6,6,0,0,0,12,0V105.11A6.79,6.79,0,0,1,252.59,99L263,93.8l9.51,9.51a12.43,12.43,0,0,0,17.55,0l9.51-9.51L310,99a6.79,6.79,0,0,1,3.77,6.11v17.73a6,6,0,0,0,12,0V105.11a18.72,18.72,0,0,0-10.41-16.84h0Zm-33.78,6.55a0.41,0.41,0,0,1-.59,0l-8.2-8.2a12.42,12.42,0,0,0,1.67-6.22V76.78a31.42,31.42,0,0,0,13.65,0v3.61a12.42,12.42,0,0,0,1.67,6.22ZM281.3,65.53a19.68,19.68,0,0,1-19.65-19.65V33.05a13.26,13.26,0,0,1,13.24-13.24h12.82a13.26,13.26,0,0,1,13.24,13.24V45.88A19.68,19.68,0,0,1,281.3,65.53h0Zm0,0" transform="translate(71 133.27)" style="fill:#fff"/></svg>