<svg id="Capa_1" data-name="Capa 1" xmlns="http://www.w3.org/2000/svg" width="17.92cm" height="14.81cm" viewBox="0 0 508 419.9"><title>2 icon</title><path d="M452.6,449.5V210.6l44.3,32.5,9.7-13.2L256,46.1,5.3,229.9,15,243.1l44.3-32.5V449.5H2v16.4H149.5V285.7h213V466H510V449.6H452.6v-0.1Zm-73.7,0V269.3H133.1V449.6H75.7v-251L256,66.4,436.3,198.6V449.5H378.9Z" transform="translate(-2 -46.1)" style="fill:#fff"/><path d="M264.2,334.8v32.8H247.8V334.8H190.5V465.9H321.6V334.8H264.2Zm41,114.7H206.9V351.2h24.5V384h49.2V351.2h24.6v98.3Z" transform="translate(-2 -46.1)" style="fill:#fff"/><path d="M256,130a41,41,0,1,0,41,41A41.06,41.06,0,0,0,256,130Zm0,65.5a24.6,24.6,0,1,1,24.6-24.6A24.58,24.58,0,0,1,256,195.5Z" transform="translate(-2 -46.1)" style="fill:#fff"/></svg>