<svg id="Слой_1" data-name="Слой 1" xmlns="http://www.w3.org/2000/svg" width="11.32cm" height="14.45cm" viewBox="0 0 320.85 409.6"><title>4 icon</title><path d="M746.36-133.94H525.08v409.6H845.93v-310Zm4,23.3,72.27,72.27H750.36v-72.27ZM538.73,262V-120.28h198v95.57h95.57V262H538.73Zm0,0" transform="translate(-525.08 133.94)" style="fill:#fff"/><path d="M593.35-17.88h61.44a6.83,6.83,0,0,0,6.83-6.83,6.83,6.83,0,0,0-6.83-6.83H593.35a6.82,6.82,0,0,0-6.83,6.83,6.82,6.82,0,0,0,6.83,6.83h0Zm0,0" transform="translate(-525.08 133.94)" style="fill:#fff"/><path d="M593.35,36.73h34.13a6.83,6.83,0,1,0,0-13.66H593.35a6.83,6.83,0,0,0,0,13.66h0Zm0,0" transform="translate(-525.08 133.94)" style="fill:#fff"/><path d="M695.75,36.73h47.79a6.83,6.83,0,1,0,0-13.66H695.75a6.83,6.83,0,1,0,0,13.66h0Zm0,0" transform="translate(-525.08 133.94)" style="fill:#fff"/><path d="M656.77,25.13a6.59,6.59,0,0,0-2,4.78,6.88,6.88,0,0,0,2,4.85,7.17,7.17,0,0,0,4.85,2,6.68,6.68,0,0,0,4.84-2.05,6.89,6.89,0,0,0,2-4.78,7.16,7.16,0,0,0-2-4.85,7.08,7.08,0,0,0-9.69.07h0Zm0,0" transform="translate(-525.08 133.94)" style="fill:#fff"/><path d="M777.67,36.73a6.76,6.76,0,0,0,6.83-6.83,7.16,7.16,0,0,0-2-4.85,7.16,7.16,0,0,0-9.7,0,6.93,6.93,0,0,0,0,9.7,7.18,7.18,0,0,0,4.85,2h0Zm0,0" transform="translate(-525.08 133.94)" style="fill:#fff"/><path d="M675.27,77.69H627.48a6.83,6.83,0,0,0,0,13.66h47.79a6.83,6.83,0,0,0,0-13.66h0Zm0,0" transform="translate(-525.08 133.94)" style="fill:#fff"/><path d="M593.35,91.35a7.19,7.19,0,0,0,4.85-2,6.92,6.92,0,0,0,0-9.7,7.16,7.16,0,0,0-9.69,0,6.74,6.74,0,0,0-2,4.85,6.76,6.76,0,0,0,6.83,6.83h0Zm0,0" transform="translate(-525.08 133.94)" style="fill:#fff"/><path d="M799.82,101.67a4.35,4.35,0,0,1-2.48-6,18,18,0,0,0-24-24,4.36,4.36,0,0,1-6-2.48,18,18,0,0,0-34,0,4.36,4.36,0,0,1-6,2.48,18,18,0,0,0-24,24,4.39,4.39,0,0,1,.09,3.56,4.33,4.33,0,0,1-2.57,2.44,18,18,0,0,0,0,34,4.35,4.35,0,0,1,2.48,6,18.06,18.06,0,0,0,12.85,25.45v84.12L750.36,217l34.13,34.14V167.06a18,18,0,0,0,12.85-25.44,4.39,4.39,0,0,1-.1-3.56,4.32,4.32,0,0,1,2.57-2.43,18,18,0,0,0,0-34h0Zm-49.46,96.07-20.48,20.48v-53l0.18,0a4.31,4.31,0,0,1,.89.25,4.61,4.61,0,0,1,1.26.79,4.18,4.18,0,0,1,1.18,1.78,18,18,0,0,0,34,0,4.2,4.2,0,0,1,1.18-1.78,4.35,4.35,0,0,1,1.26-.79,5,5,0,0,1,.88-0.25l0.18,0v53Zm44.88-75A18,18,0,0,0,785,147.49a4.18,4.18,0,0,1-.86,5,4.28,4.28,0,0,1-3.83,1.16l-1.5-.47a17.11,17.11,0,0,0-1.92-.63c-0.48-.15-0.94-0.35-1.43-0.47a17.57,17.57,0,0,0-2-.27c-0.55-.06-1.09-0.18-1.64-0.19a18.23,18.23,0,0,0-2,.15c-0.57.06-1.14,0-1.71,0.15a17.41,17.41,0,0,0-3.55,1.05h0c-0.3.12-.56,0.32-0.85,0.46a14.79,14.79,0,0,0-5,3.52c-0.09.09-.2,0.16-0.29,0.25a18,18,0,0,0-3.92,6.38,4.36,4.36,0,0,1-8.22,0,18,18,0,0,0-3.92-6.37c-0.07-.08-0.16-0.12-0.23-0.2a18,18,0,0,0-2.61-2.23,17.58,17.58,0,0,0-2.37-1.29c-0.32-.16-0.61-0.37-0.94-0.51h0c-0.14-.06-0.29-0.07-0.44-0.13a18,18,0,0,0-3-.9,18.55,18.55,0,0,0-2.49-.25c-0.3,0-.61-0.09-0.92-0.09h-0.05a16.33,16.33,0,0,0-7.15,1.52l-1.55.48a4.25,4.25,0,0,1-3.95-1.13,4.17,4.17,0,0,1-.86-5,18,18,0,0,0-10.24-24.72,4.36,4.36,0,0,1,0-8.22,18,18,0,0,0,10.24-24.73A4.37,4.37,0,0,1,721.54,84a18,18,0,0,0,24.72-10.24,4.36,4.36,0,0,1,8.22,0A18,18,0,0,0,779.2,84,4.37,4.37,0,0,1,785,89.83a18,18,0,0,0,10.24,24.72,4.36,4.36,0,0,1,0,8.22h0Zm0,0" transform="translate(-525.08 133.94)" style="fill:#fff"/><path d="M615.83,220.57a7,7,0,0,1-5-2L587,194.69a7,7,0,1,1,9.9-9.9l23.83,23.83A7,7,0,0,1,615.83,220.57Z" transform="translate(-525.08 133.94)" style="fill:#fff"/><path d="M615.83,220.57a7,7,0,0,1-4.95-12l40.31-40.3a7,7,0,1,1,9.9,9.9l-40.31,40.3A7,7,0,0,1,615.83,220.57Z" transform="translate(-525.08 133.94)" style="fill:#fff"/></svg>