<svg id="Слой_1" data-name="Слой 1" xmlns="http://www.w3.org/2000/svg" width="1.49cm" height="1.49cm" viewBox="0 0 42.23 42.23"><title>phone</title><path d="M134.12,83.73a10.21,10.21,0,0,1-3.5-.75,26.22,26.22,0,0,1-8.83-6,26.28,26.28,0,0,1-6-8.83c-1-2.62-1-4.77,0-5.76l0.43-.45c0.9-.95,1.91-2,3.26-2a3.9,3.9,0,0,1,2.75,1.76c2.72,3.38,1.49,4.59.07,6l-0.25.25c-0.23.23-.67,1.3,3.41,5.38a22.49,22.49,0,0,0,3.37,2.89c0.57,0.37,1.59.93,2,.52l0.25-.25c1.39-1.42,2.6-2.64,6,.08a3.88,3.88,0,0,1,1.76,2.75c0.05,1.34-1,2.36-2,3.26l-0.45.43a3.12,3.12,0,0,1-2.25.73h0Zm-14.78-23c-1,0-1.82.91-2.59,1.71l-0.45.46c-0.73.73-.66,2.66,0.19,4.91a25.41,25.41,0,0,0,5.86,8.54,25.45,25.45,0,0,0,8.54,5.86c2.25,0.85,4.18.92,4.91,0.19l0.46-.45c0.82-.78,1.75-1.67,1.71-2.65a3.23,3.23,0,0,0-1.46-2.16c-2.81-2.26-3.6-1.46-4.91-.14l-0.26.26c-0.62.63-1.64,0.49-3-.41a23.5,23.5,0,0,1-3.5-3c-3.39-3.39-4.47-5.46-3.41-6.52l0.26-.25c1.33-1.3,2.13-2.09-.14-4.91a3.24,3.24,0,0,0-2.16-1.46h-0.06Zm0,0" transform="translate(-105.78 -50.74)" style="stroke:#000;stroke-miterlimit:10;stroke-width:0.5px"/><circle cx="21.11" cy="21.11" r="20.49" style="fill:none;stroke:#000;stroke-miterlimit:10;stroke-width:1.25px"/></svg>